<svg viewBox="0 0 96 96" xmlns="http://www.w3.org/2000/svg" xmlns:xlink="http://www.w3.org/1999/xlink" id="Icons_Ear_M" overflow="hidden"><g id="Icons"><path d="M23.008 36.876C22.9525 37.4255 23.3529 37.9159 23.9024 37.9715 24.4336 38.0251 24.9133 37.6521 24.992 37.124 26.5648 24.5192 38.058 15.576 50.6628 17.1488 62.1856 18.5865 70.8292 28.3879 70.815 40 70.815 47.464 65.515 53.373 59.108 59.778L58.815 60.071 58.815 67.521C58.8073 74.4098 53.2248 79.9923 46.336 80L45.584 80C43.2321 80.0041 40.9042 79.5277 38.743 78.6L35.209 77.085C34.7046 76.8602 34.1133 77.0868 33.8885 77.5913 33.6637 78.0957 33.8904 78.6869 34.3948 78.9118 34.4035 78.9156 34.4122 78.9194 34.421 78.923L37.955 80.438C40.3651 81.4726 42.9612 82.0042 45.584 82L46.336 82C54.3277 81.9884 60.8034 75.5127 60.815 67.521L60.815 60.9C67.409 54.286 72.815 48.112 72.815 40 72.8281 26.1929 61.6458 14.9894 47.8387 14.9764 35.2214 14.9644 24.5727 24.3561 23.008 36.876Z" stroke="#4472C4" stroke-width="1.75342" fill="#FFFFFF"/><path d="M53.641 27.778C57.8898 29.7844 60.8048 33.8385 61.354 38.505 61.4341 39.0514 61.9421 39.4295 62.4885 39.3493 63.0151 39.2721 63.389 38.7959 63.339 38.266 62.3089 29.671 54.5062 23.5385 45.9112 24.5686 37.3162 25.5987 31.1836 33.4014 32.2137 41.9964 32.5868 45.1087 33.8844 48.0377 35.939 50.405 36.301 50.8223 36.9327 50.867 37.35 50.505 37.7673 50.143 37.812 49.5113 37.45 49.094 36.1079 47.5472 35.1308 45.7184 34.591 43.743 36.9314 37.7941 43.6511 34.8688 49.6 37.2092 54.9978 39.3327 57.9903 45.1236 56.6 50.755 55.7 54.372 52.331 56.642 48.355 59.03L48 59.243 47.006 63.222C46.1133 66.4362 42.8465 68.3763 39.597 67.622 38.1693 67.4544 36.9035 66.6255 36.179 65.384 35.5092 64.0311 35.4481 62.4568 36.011 61.056 36.2309 60.5494 35.9985 59.9604 35.4919 59.7405 34.9853 59.5206 34.3963 59.753 34.1764 60.2596 34.1732 60.2671 34.17 60.2745 34.167 60.282 33.3718 62.2409 33.4641 64.4483 34.42 66.334 35.4227 68.1151 37.2048 69.3208 39.231 69.589 39.7949 69.6942 40.3673 69.7474 40.941 69.748 44.6884 69.8369 48.0042 67.335 48.947 63.707L49.74 60.531C53.949 57.986 57.481 55.482 58.54 51.24 59.7449 46.4057 58.2184 41.299 54.558 37.919 54.0513 37.4375 53.4998 37.0056 52.911 36.629 46.6796 32.5162 38.2986 34.1865 34.12 40.374 34.1167 40.3784 34.1105 40.3794 34.106 40.3761 34.1037 40.3744 34.1023 40.3718 34.102 40.369 33.9767 32.8137 39.9999 26.5873 47.5552 26.462 49.658 26.4271 51.7405 26.8774 53.641 27.778Z" stroke="#4472C4" stroke-width="1.75342" fill="#FFFFFF"/></g></svg>